<svg width="43" height="45" viewBox="0 0 43 45" fill="none" xmlns="http://www.w3.org/2000/svg">
<path d="M38.899 6.74177C40.5 9.14907 40.5 12.5002 40.5 19.2025C40.5 25.9048 40.5 29.256 38.899 31.6633C38.2059 32.7054 37.3152 33.6002 36.2779 34.2965C34.1847 35.7017 31.3745 35.8793 26.25 35.9018V35.905L23.6243 41.181C22.749 42.9397 20.251 42.9397 19.3757 41.181L16.75 35.905V35.9018C11.6255 35.8793 8.81529 35.7017 6.72208 34.2965C5.68478 33.6002 4.79414 32.7054 4.10104 31.6633C2.5 29.256 2.5 25.9048 2.5 19.2025C2.5 12.5002 2.5 9.14907 4.10104 6.74177C4.79414 5.69963 5.68478 4.80484 6.72208 4.1085C9.11821 2.5 12.4538 2.5 19.125 2.5H23.875C30.5462 2.5 33.8818 2.5 36.2779 4.1085C37.3152 4.80484 38.2059 5.69963 38.899 6.74177Z" stroke="#CAFE50" stroke-width="5" stroke-linecap="round" stroke-linejoin="round"/>
<path d="M14.375 14.4302L28.625 14.4302" stroke="#CAFE50" stroke-width="5" stroke-linecap="round" stroke-linejoin="round"/>
<path d="M14.375 23.9746H21.5" stroke="#CAFE50" stroke-width="5" stroke-linecap="round" stroke-linejoin="round"/>
</svg>
