<svg width="50" height="45" viewBox="0 0 50 45" fill="none" xmlns="http://www.w3.org/2000/svg">
<path d="M2.5 8.5C2.5 5.67157 2.5 4.25736 3.37868 3.37868C4.25736 2.5 5.67157 2.5 8.5 2.5H41.5C44.3284 2.5 45.7426 2.5 46.6213 3.37868C47.5 4.25736 47.5 5.67157 47.5 8.5V15.625C47.5 16.4469 47.5 16.8578 47.273 17.1344C47.2315 17.185 47.185 17.2315 47.1344 17.273C46.8578 17.5 46.4469 17.5 45.625 17.5H45C43.1308 17.5 42.1962 17.5 41.5 17.9019C41.0439 18.1652 40.6652 18.5439 40.4019 19C40 19.6962 40 20.6308 40 22.5C40 24.3692 40 25.3038 40.4019 26C40.6652 26.4561 41.0439 26.8348 41.5 27.0981C42.1962 27.5 43.1308 27.5 45 27.5H45.625C46.4469 27.5 46.8578 27.5 47.1344 27.727C47.185 27.7685 47.2315 27.815 47.273 27.8656C47.5 28.1422 47.5 28.5531 47.5 29.375V36.5C47.5 39.3284 47.5 40.7426 46.6213 41.6213C45.7426 42.5 44.3284 42.5 41.5 42.5H8.5C5.67157 42.5 4.25736 42.5 3.37868 41.6213C2.5 40.7426 2.5 39.3284 2.5 36.5V29.375C2.5 28.5531 2.5 28.1422 2.72699 27.8656C2.76854 27.815 2.81497 27.7685 2.86561 27.727C3.14219 27.5 3.55313 27.5 4.375 27.5H5C6.86923 27.5 7.80385 27.5 8.5 27.0981C8.95606 26.8348 9.33477 26.4561 9.59808 26C10 25.3038 10 24.3692 10 22.5C10 20.6308 10 19.6962 9.59808 19C9.33477 18.5439 8.95606 18.1652 8.5 17.9019C7.80385 17.5 6.86923 17.5 5 17.5H4.375C3.55313 17.5 3.14219 17.5 2.86561 17.273C2.81497 17.2315 2.76854 17.185 2.72699 17.1344C2.5 16.8578 2.5 16.4469 2.5 15.625V8.5Z" stroke="#CAFE50" stroke-width="5"/>
<path d="M23.8919 19.2214C24.3122 18.1339 24.5224 17.5902 24.8638 17.5149C24.9536 17.495 25.0464 17.495 25.1362 17.5149C25.4776 17.5902 25.6878 18.1339 26.1081 19.2214C26.3471 19.8398 26.4666 20.149 26.6903 20.3593C26.753 20.4183 26.8211 20.4708 26.8936 20.5162C27.1521 20.6778 27.4747 20.7078 28.12 20.7678C29.2125 20.8693 29.7587 20.9201 29.9255 21.2433C29.96 21.3102 29.9835 21.3827 29.995 21.4577C30.0503 21.8198 29.6487 22.1989 28.8456 22.9572L28.6226 23.1677C28.2472 23.5222 28.0594 23.6995 27.9508 23.9207C27.8857 24.0534 27.842 24.1963 27.8216 24.3437C27.7874 24.5894 27.8424 24.8465 27.9524 25.3608L27.9916 25.5445C28.1888 26.4668 28.2874 26.9279 28.1643 27.1545C28.0538 27.3581 27.8502 27.4885 27.6252 27.4996C27.3748 27.512 27.022 27.2137 26.3163 26.6169C25.8514 26.2238 25.6189 26.0272 25.3609 25.9504C25.125 25.8802 24.875 25.8802 24.6391 25.9504C24.3811 26.0272 24.1486 26.2238 23.6837 26.6169C22.978 27.2137 22.6252 27.512 22.3748 27.4996C22.1498 27.4885 21.9462 27.3581 21.8357 27.1545C21.7126 26.9279 21.8112 26.4668 22.0084 25.5445L22.0476 25.3608C22.1576 24.8465 22.2126 24.5894 22.1784 24.3437C22.158 24.1963 22.1143 24.0534 22.0492 23.9207C21.9406 23.6995 21.7528 23.5222 21.3774 23.1677L21.1544 22.9572C20.3513 22.1989 19.9497 21.8198 20.005 21.4577C20.0165 21.3827 20.04 21.3102 20.0745 21.2433C20.2413 20.9201 20.7875 20.8693 21.88 20.7678C22.5253 20.7078 22.8479 20.6778 23.1064 20.5162C23.1789 20.4708 23.247 20.4183 23.3097 20.3593C23.5334 20.149 23.6529 19.8398 23.8919 19.2214Z" fill="#CAFE50"/>
</svg>
