<svg width="37" height="45" viewBox="0 0 37 45" fill="none" xmlns="http://www.w3.org/2000/svg">
<path d="M20.659 2.50146H11.3889C7.19863 2.50146 5.1035 2.50146 3.80175 3.80321C2.5 5.10496 2.5 7.20009 2.5 11.3904V33.6126C2.5 37.8028 2.5 39.898 3.80175 41.1997C5.1035 42.5015 7.19863 42.5015 11.3889 42.5015H24.7222C28.9125 42.5015 31.0076 42.5015 32.3094 41.1997C33.6111 39.898 33.6111 37.8028 33.6111 33.6126V15.4535C33.6111 14.5452 33.6111 14.091 33.442 13.6826C33.2728 13.2743 32.9517 12.9531 32.3094 12.3108L23.8017 3.80321C23.1595 3.16092 22.8383 2.83978 22.4299 2.67062C22.0216 2.50146 21.5674 2.50146 20.659 2.50146Z" stroke="#CAFE50" stroke-width="5"/>
<path d="M11.3889 24.7236L24.7222 24.7236" stroke="#CAFE50" stroke-width="5" stroke-linecap="round"/>
<path d="M11.3889 33.6125L20.2778 33.6125" stroke="#CAFE50" stroke-width="5" stroke-linecap="round"/>
<path d="M20.2778 2.50146V11.3904C20.2778 13.4855 20.2778 14.5331 20.9287 15.1839C21.5796 15.8348 22.6272 15.8348 24.7223 15.8348H33.6112" stroke="#CAFE50" stroke-width="5"/>
</svg>
