<svg width="53" height="43" viewBox="0 0 53 43" fill="none" xmlns="http://www.w3.org/2000/svg">
<circle cx="26.3166" cy="10.6667" r="8.16665" stroke="#CAFE50" stroke-width="5" stroke-linecap="round"/>
<path d="M34.8868 10.5834C35.6161 9.32011 36.8174 8.39832 38.2264 8.02078C39.6354 7.64325 41.1366 7.84089 42.3999 8.57023C43.6631 9.29958 44.5849 10.5009 44.9625 11.9099C45.34 13.3188 45.1424 14.8201 44.413 16.0834C43.6837 17.3466 42.4824 18.2684 41.0734 18.6459C39.6644 19.0235 38.1632 18.8258 36.8999 18.0965C35.6366 17.3672 34.7148 16.1659 34.3373 14.7569C33.9598 13.3479 34.1574 11.8466 34.8868 10.5834L34.8868 10.5834Z" stroke="#CAFE50" stroke-width="5"/>
<path d="M8.22026 10.5834C8.9496 9.32011 10.1509 8.39832 11.5599 8.02078C12.9689 7.64325 14.4701 7.84089 15.7334 8.57023C16.9966 9.29958 17.9184 10.5009 18.296 11.9099C18.6735 13.3188 18.4759 14.8201 17.7465 16.0834C17.0172 17.3466 15.8159 18.2684 14.4069 18.6459C12.9979 19.0235 11.4967 18.8258 10.2334 18.0965C8.97013 17.3672 8.04834 16.1659 7.67081 14.7569C7.29327 13.3479 7.49091 11.8466 8.22026 10.5834L8.22026 10.5834Z" stroke="#CAFE50" stroke-width="5"/>
<path d="M39.6504 26.6671L39.6505 24.1671H39.6504V26.6671ZM50.1035 36.2256L52.5376 35.6555L52.5376 35.6554L50.1035 36.2256ZM39.333 37.3331L36.8822 37.8267L37.2864 39.8331H39.333V37.3331ZM33.7334 28.5635L32.2212 26.5728L29.3306 28.7685L32.4127 30.6862L33.7334 28.5635ZM39.6504 26.6671L39.6503 29.1671C42.4854 29.1671 44.2556 30.4102 45.4673 31.9617C46.7481 33.6015 47.3871 35.5909 47.6694 36.7959L50.1035 36.2256L52.5376 35.6554C52.1805 34.1308 51.3269 31.341 49.4079 28.884C47.4199 26.3386 44.2833 24.1672 39.6505 24.1671L39.6504 26.6671ZM50.1035 36.2256L47.6694 36.7958C47.4019 35.6538 48.3414 34.8331 49.1836 34.8331V37.3331V39.8331C51.2288 39.8331 53.0795 37.9688 52.5376 35.6555L50.1035 36.2256ZM49.1836 37.3331V34.8331H39.333V37.3331V39.8331H49.1836V37.3331ZM39.333 37.3331L41.7838 36.8394C41.2062 33.9722 39.604 29.2718 35.0541 26.4409L33.7334 28.5635L32.4127 30.6862C35.2399 32.4453 36.414 35.5022 36.8822 37.8267L39.333 37.3331ZM33.7334 28.5635L35.2456 30.5543C36.3007 29.7529 37.7001 29.1671 39.6504 29.1671V26.6671V24.1671C36.5873 24.1671 34.1296 25.1231 32.2212 26.5728L33.7334 28.5635Z" fill="#CAFE50"/>
<path d="M12.9836 26.6671L12.9837 24.1671H12.9836V26.6671ZM18.8997 28.5635L20.2204 30.6862L23.3025 28.7683L20.4118 26.5727L18.8997 28.5635ZM13.3 37.3331V39.8331H15.3467L15.7508 37.8267L13.3 37.3331ZM3.44946 37.3331L3.44902 39.8331H3.44946V37.3331ZM2.52954 36.2256L0.0954392 35.6554L0.0954301 35.6555L2.52954 36.2256ZM12.9836 26.6671L12.9836 29.1671C14.9334 29.1671 16.3323 29.7529 17.3875 30.5544L18.8997 28.5635L20.4118 26.5727C18.5037 25.1234 16.0468 24.1671 12.9837 24.1671L12.9836 26.6671ZM18.8997 28.5635L17.5789 26.4409C13.0293 29.2719 11.4268 33.9721 10.8493 36.8394L13.3 37.3331L15.7508 37.8267C16.219 35.5024 17.3933 32.4453 20.2204 30.6862L18.8997 28.5635ZM13.3 37.3331V34.8331H3.44946V37.3331V39.8331H13.3V37.3331ZM3.44946 37.3331L3.44991 34.8331C4.29133 34.8332 5.23129 35.6533 4.96365 36.7958L2.52954 36.2256L0.0954301 35.6555C-0.446551 37.9692 1.40478 39.8327 3.44902 39.8331L3.44946 37.3331ZM2.52954 36.2256L4.96364 36.7959C5.24589 35.591 5.88505 33.6016 7.16598 31.9617C8.37792 30.4102 10.1484 29.1671 12.9836 29.1671V26.6671V24.1671C8.35069 24.1671 5.21379 26.3385 3.22559 28.8838C1.30639 31.3409 0.452618 34.1307 0.0954392 35.6554L2.52954 36.2256Z" fill="#CAFE50"/>
<path d="M26.3167 26.6667C37.4228 26.6667 39.278 35.9176 39.5879 39.0082C39.643 39.5577 39.2023 40 38.65 40H13.9834C13.4311 40 12.9904 39.5577 13.0455 39.0082C13.3554 35.9176 15.2106 26.6667 26.3167 26.6667Z" stroke="#CAFE50" stroke-width="5" stroke-linecap="round"/>
</svg>
