<svg width="100" height="91" viewBox="0 0 100 91" fill="none" xmlns="http://www.w3.org/2000/svg">
<path fill-rule="evenodd" clip-rule="evenodd" d="M24.6852 11.3603C23.0929 11.0519 22.3499 11.085 20.655 11.1016C19.1589 11.1159 18.1779 11.3333 17.616 12.3544C17.1589 13.1857 17.1623 15.2691 17.5201 16.1281C17.9853 17.2456 19.0689 17.5333 20.6037 17.4946C20.1222 18.4688 19.1342 19.1112 19.0896 21.5511L19.1095 38.7954C19.26 40.3822 20.4281 41.5926 21.5847 41.9789C22.5314 42.2956 25.8042 42.1624 27.0353 42.1591C28.9213 42.1542 30.6424 42.3934 31.9477 41.4245C33.1896 40.5026 33.5224 39.2162 33.5533 37.2243C35.9824 37.1927 54.0739 37.0667 54.9431 37.2909C54.9479 40.1284 56.2053 42.1986 58.9169 42.2599C61.1579 42.3106 65.6928 42.5893 67.2933 41.6336C69.5733 40.272 69.0697 37.5041 69.0767 34.295C69.0818 31.7652 69.3246 27.4687 69.0306 25.1435C69.9297 25.6546 76.0939 32.5238 77.2165 33.1576C78.6399 33.961 80.071 33.5394 81.0073 32.5265C81.9408 31.5169 82.0459 29.6886 81.2427 28.523L73.2866 20.3189C76.1776 16.0841 75.6589 8.57551 71.8467 4.40314C68.6233 0.87508 62.3421 -1.60359 56.4222 1.23353C55.4297 1.70895 55.736 1.78756 54.3698 1.78004L46.5583 1.78042C43.0878 1.77854 39.6168 1.78117 36.1462 1.78154C31.9724 1.78154 29.9916 1.29822 27.7721 3.86265C26.8339 4.94627 26.5709 5.98024 26.0584 7.43246C25.6887 8.48035 24.8405 10.3347 24.6852 11.3603Z" fill="#CAFE50"/>
<path fill-rule="evenodd" clip-rule="evenodd" d="M78.7041 59.2352L76.2403 59.2359L76.2485 46.2318L68.1596 46.2314L68.1603 50.2089L63.1608 50.2176L63.1763 46.2618L54.8059 46.2381L54.8255 50.4207C52.8494 50.0528 50.6926 50.2119 48.6406 50.2131C45.1125 50.2149 45.8017 50.5294 43.8094 51.6175C42.3783 50.1642 40.0208 50.2146 37.4478 50.2146C33.6043 50.2146 33.6862 49.8147 30.81 51.5445C27.6039 49.3946 27.4641 50.6783 23.5607 50.1739L23.5733 46.2367C20.8767 46.2227 17.5593 46.4277 15.1929 46.2442C12.6026 46.0433 9.15416 46.234 6.47126 46.2385C-1.19929 46.2506 0.0798196 51.1947 0.0908877 57.3828C0.0978975 61.1546 -0.82299 65.8309 3.04825 67.5145C4.42881 68.1152 5.33826 67.9865 6.97486 67.9459C9.62271 67.8801 12.8981 68.0896 15.4508 67.8519C17.6334 67.6484 21.5965 68.2009 23.8621 67.8127L23.85 59.105C23.9511 58.6714 23.7264 58.8568 24.1721 58.7169C24.1905 58.744 24.2086 58.7579 24.213 58.8068C24.2174 58.8568 24.2444 58.8779 24.2499 58.9008C24.2558 58.9253 24.2735 58.9715 24.2794 59.0027L24.2927 67.8564C25.2744 67.8579 31.7596 68.0441 32.1459 67.7616C32.5598 67.4592 31.9603 68.0467 32.2636 67.6209C32.2783 67.6002 32.2942 67.5574 32.3052 67.5374C32.3167 67.5171 32.3322 67.4663 32.3403 67.449C32.3488 67.4317 32.3547 67.3855 32.3717 67.3588C33.9573 68.0591 36.6764 67.7672 38.6189 67.7597C39.646 67.7559 40.7402 67.8477 41.6917 67.5555C42.8118 67.2121 43.1409 66.7649 43.9551 66.4124C45.2051 67.3516 45.7308 67.7443 47.8596 67.7608C49.5899 67.7748 51.335 67.7676 53.066 67.7635C53.5298 67.7623 53.8965 67.7571 54.3547 67.6988C55.1438 67.5984 54.6963 67.7071 55.2885 67.8443C55.7817 67.9587 57.2885 67.8985 57.8817 67.8985C59.373 67.8989 61.6958 68.0234 63.0878 67.8338L63.183 66.8713C63.3379 67.0063 63.2593 66.9322 63.4176 67.1019C63.4187 67.103 63.6039 67.323 63.6135 67.3354C63.7504 67.5137 63.8592 67.6946 63.9648 67.8688L71.429 67.8733C72.2105 67.8285 71.9002 67.6653 72.3639 67.718C74.8834 68.0057 81.2132 68.2566 83.0981 67.5062L83.1384 72.2371L91.4512 72.2458L91.4579 67.7262C94.9889 67.8139 97.6172 67.9587 99.0653 65.3984C100.383 63.0694 99.9198 59.2329 99.9264 56.1878C99.9448 47.4888 90.8262 50.942 86.047 50.1642L86.0411 46.1396L78.7432 46.1336L78.7041 59.2352Z" fill="#CAFE50"/>
<path fill-rule="evenodd" clip-rule="evenodd" d="M17.2738 65.4834C17.8287 66.5034 15.8693 66.2684 22.4629 66.2691L22.4755 57.3L25.673 57.2925L25.6634 66.2161L31.1473 66.2736L31.1078 64.8394L32.1766 65.6707C33.5749 66.6012 36.0283 66.2721 37.8379 66.2691C39.0123 66.2669 40.5935 66.4331 41.6335 66.0363C42.9263 65.5428 43.0462 65.0719 43.825 64.0383C43.9243 64.1177 43.8896 64.0782 44.0125 64.2271C44.07 64.2975 44.1656 64.4377 44.2294 64.5291C45.6343 66.5328 47.1587 66.2702 49.4214 66.2714C50.7234 66.2721 52.0254 66.268 53.3273 66.2732C55.1617 66.2804 55.0772 65.9441 56.2449 65.4123L56.2438 66.2759L61.5978 66.2691C61.5694 65.3344 61.3395 62.3803 61.7859 61.8222C62.146 62.1588 64.443 65.6981 64.7352 66.2661L70.7618 66.2691L70.8503 65.571C70.857 65.5503 70.8739 65.5105 70.8909 65.4826C71.9671 66.8081 75.9929 66.3432 78.0549 66.3503C80.0232 66.3571 82.0711 66.6866 83.4624 65.6805C83.8564 65.3954 84.2312 64.8466 84.5238 64.7007L84.5367 70.7973L89.9977 70.783L89.9675 66.2676C92.8669 66.2958 96.322 66.8002 97.6642 64.8993C98.9286 63.1096 98.4441 59.0746 98.4312 56.4533C98.4227 54.7751 98.3346 53.775 97.4668 52.8508C96.6423 51.9729 95.6801 51.6732 94.0641 51.6807C91.4074 51.6923 87.507 51.9082 84.9898 51.6453L84.9444 47.6915L80.1051 47.7028L80.1006 60.543L74.9156 60.5896L74.9071 47.7626L69.521 47.7434L69.4635 51.6807C65.0831 51.6762 64.8422 51.0774 63.0211 53.204C62.6802 53.6023 61.9516 54.3331 61.5218 54.5287L61.5871 47.8284L56.2548 47.8344L56.2744 52.9956C55.4483 52.3957 55.213 51.8815 53.7018 51.7021C52.6171 51.5735 50.8403 51.6814 49.6819 51.6818C48.0571 51.6826 45.445 51.3346 44.2545 53.3067L43.825 53.931C43.0761 53.0167 42.9425 52.3987 41.5177 51.9086C40.3371 51.502 38.7676 51.6826 37.4476 51.6807C34.2305 51.6758 32.0073 51.4219 30.8551 53.8253C30.3935 53.38 30.5286 53.1197 29.5524 52.4314C27.8468 51.2282 24.6972 51.648 22.1965 51.6852L22.2054 47.8476L17.3483 47.8322L17.3649 48.8831C16.7145 48.7273 16.5585 47.933 15.2797 47.7468L5.55862 47.7287C4.35441 47.7295 3.78922 47.8021 2.96281 48.3629C2.388 48.7533 1.80914 49.5078 1.61803 50.3101C1.3583 51.402 1.52985 55.4562 1.52912 56.852C1.52653 60.8318 0.378387 66.4282 5.16754 66.4432L14.9362 66.4026C16.2257 66.3564 16.5264 65.9095 17.2738 65.4834Z" fill="#050503"/>
<path fill-rule="evenodd" clip-rule="evenodd" d="M17.395 90.9539L26.2487 90.9569L27.0659 88.1796L30.9579 88.1698C31.1017 88.7554 31.5253 90.6812 31.9813 90.9562L42.6538 90.9569C46.3631 90.9554 50.0805 90.9332 53.7894 90.9618L53.7858 90.0147C56.1215 90.8636 54.8158 90.9516 58.4022 90.9565C60.1115 90.9592 62.2056 91.0649 63.8684 90.9246C64.0042 90.5744 63.8703 90.5691 64.1289 90.3092C65.4283 91.186 67.6614 90.9535 69.4652 90.9558C72.7424 90.9595 76.6059 91.6298 78.1761 87.6188C78.7944 86.0383 78.5793 83.8139 78.5793 81.9303C78.5793 78.7776 79.1958 74.6691 75.0667 73.2974C73.6994 72.8434 71.0036 73.0319 69.3349 73.0326C66.8649 73.0334 66.0636 72.8216 63.9986 73.6333C63.6544 72.9344 64.9741 73.042 60.0252 73.0198L60.0569 69.409L51.7131 69.4015L51.7175 72.9916L45.7721 73.0386L45.7865 82.6314L44.5288 82.5866L44.5251 73.0439L36.4018 73.0341L36.3978 77.015L33.9573 69.6892C33.8621 69.5098 33.8662 69.5305 33.7784 69.4267L23.8245 69.3567L20.5926 80.135C20.0562 81.8404 19.481 83.7887 18.987 85.5392C18.6354 86.7861 17.5363 90.0027 17.395 90.9539Z" fill="#CAFE50"/>
<path fill-rule="evenodd" clip-rule="evenodd" d="M53.0745 74.5036L47.149 74.5033C47.1468 74.7771 47.2933 83.8192 47.0472 84.0388C46.5653 84.2555 43.9843 84.1693 43.2479 84.1088L43.1863 74.4995L37.8031 74.504L37.8001 85.9571L37.4593 85.0995C37.3534 84.7414 37.2674 84.4717 37.1446 84.096L34.0514 74.6428C33.7559 73.7288 33.1881 71.6022 32.7623 70.9071L25.0833 70.8432C24.6889 71.5996 22.5487 78.7637 22.148 80.1324C21.2191 83.3035 20.2248 86.3904 19.2593 89.4844L25.0829 89.5509C25.3711 88.9706 25.8064 87.1983 25.992 86.5701L31.8511 86.5747L32.8468 89.4957L38.8638 89.49L38.3761 88.0032C38.7299 88.1777 38.5568 88.1032 38.8852 88.4286C40.4277 89.9542 42.4071 89.5235 44.7361 89.5235C47.332 89.5235 49.957 89.4881 52.5487 89.5235L52.5362 81.128C52.5347 81.0377 52.5318 80.5217 52.5428 80.4682C52.6233 80.0759 52.4805 80.214 52.8055 80.0699C52.9963 80.1557 53.0881 80.0109 53.0774 80.9911C53.0498 83.5784 52.7199 86.8274 54.1606 88.3804C55.7688 90.1144 59.8064 89.5382 62.565 89.5352L62.5609 85.4019C63.0811 86.1538 62.7775 88.2432 65.2877 89.2406C66.5037 89.724 69.9865 89.5088 71.5475 89.5084C74.0964 89.5077 75.3014 89.4189 76.4399 87.8482C77.4574 86.4445 77.1424 83.938 77.142 81.9303C77.142 79.9571 77.4741 77.4258 76.4418 76.0149C75.2656 74.4077 73.9459 74.504 71.4172 74.5029C65.3409 74.4995 63.7662 73.7356 62.6919 78.3398L62.5683 74.5067L58.6133 74.5033L58.5978 70.877L53.1162 70.8372L53.0745 74.5036Z" fill="#050503"/>
<path fill-rule="evenodd" clip-rule="evenodd" d="M69.0745 22.634C69.8349 23.167 70.8716 24.3875 71.5829 25.104L76.5333 30.1403C77.063 30.6872 78.3565 32.5479 79.5641 31.4571C80.9 30.2509 79.1383 28.8303 78.6078 28.292L73.6574 23.2538C73 22.5712 71.594 21.2991 71.1494 20.6281C71.3335 20.1166 71.8005 19.4008 72.0507 18.8787C72.3691 18.2149 72.6325 17.6563 72.8432 16.9127C75.1977 8.59583 68.6878 1.29973 61.1302 1.88198C52.0481 2.58195 46.8668 13.1816 53.4095 21.3461C54.0245 22.1138 55.3995 23.2599 56.4602 23.7977C59.9787 25.5813 63.9197 25.6396 67.3667 23.6574C67.933 23.3317 68.5358 22.7664 69.0745 22.634Z" fill="#050503"/>
<path fill-rule="evenodd" clip-rule="evenodd" d="M60.9409 3.94916C58.51 4.34146 56.251 5.26071 54.6922 7.15225C49.1482 13.88 54.2119 23.9192 62.6517 23.0977C71.1667 22.2691 74.0075 11.9716 68.0027 6.32665C66.6793 5.08281 63.6257 3.51511 60.9409 3.94916Z" fill="#CAFE50"/>
<path fill-rule="evenodd" clip-rule="evenodd" d="M25.3354 14.3739C24.8554 13.7457 24.8233 12.8231 22.9775 12.7343C18.9631 12.541 18.8299 12.5594 18.9605 14.9294C19.0044 15.7215 19.2394 15.9359 20.0013 15.9826C21.2771 16.0604 22.8694 15.9848 24.1762 15.9773C23.7091 16.7747 22.3529 18.0832 21.7072 18.916C20.5912 20.3543 20.7561 21.4168 20.758 23.5472C20.7606 27.2186 20.7639 30.8888 20.7587 34.5602C20.7569 35.9451 20.4558 38.6472 21.1638 39.6089C22.1009 40.8814 23.805 40.5267 25.7342 40.527C27.2339 40.527 29.7478 40.8058 30.8384 40.1656C32.2942 39.3106 31.8154 37.6297 31.915 35.6829C32.9635 35.3986 54.8661 35.3673 56.5828 35.6126C56.5887 38.3361 56.2854 40.5387 59.3081 40.5135C66.102 40.456 67.3538 41.3305 67.3841 37.2141C67.4051 34.3443 67.5593 27.7301 67.3476 25.5745C66.7108 25.9894 66.0106 26.1203 65.4509 26.4663L65.4295 38.4802C64.6735 38.6261 61.511 38.5426 60.3544 38.5452C58.1249 38.5505 58.433 39.1365 58.5171 33.4841L30.0463 33.501C29.8703 40.1163 31.5327 38.4407 23.7751 38.5513C22.6602 38.5674 22.6469 38.6231 22.6617 37.4887L22.6562 24.3431C22.6576 22.4719 22.3843 21.213 23.0376 20.4002C23.7412 19.5253 24.3075 18.8426 25.0465 18.0701C25.7833 17.3001 26.4385 16.8439 26.9262 15.6136C27.7338 13.5761 28.4481 11.3336 29.2561 9.22508C30.3595 6.34508 30.5566 5.5917 34.1932 5.53792C39.8947 5.45366 45.6704 5.4657 51.3738 5.51422C52.081 4.21997 52.8034 3.92471 53.0908 3.394C50.0677 3.58356 46.516 3.43086 43.4346 3.43688C40.2242 3.44365 37.014 3.44252 33.8036 3.44026C30.2463 3.43725 29.1509 3.82955 27.9061 7.18573C27.4501 8.41453 27.0472 9.56585 26.6171 10.7811C26.2194 11.9057 25.5896 13.3233 25.3354 14.3739Z" fill="#050503"/>
<path fill-rule="evenodd" clip-rule="evenodd" d="M23.3511 26.812L23.3603 37.8456L28.369 37.8201C28.5059 36.434 28.0971 33.0726 28.5468 32.1267C29.0305 31.5704 31.2684 31.8137 32.1115 31.8099C36.3653 31.79 59.1873 31.5704 59.6909 31.8919C60.1111 32.1816 60.1023 32.2448 60.1071 32.959C60.1107 33.4878 60.0986 34.0291 60.0982 34.5602C60.0971 35.6306 60.1056 36.7064 60.0915 37.7761L64.8903 37.7821L64.8988 26.736L33.7964 26.9493C33.2515 27.0192 33.1836 27.2442 32.8468 27.4841C31.7141 28.2909 29.3902 27.9272 27.8163 27.9302C25.5289 27.9343 24.9807 28.2243 23.6042 27.0253C23.5787 27.0031 23.5459 26.9752 23.5226 26.9549L23.3511 26.812Z" fill="#050503"/>
<path fill-rule="evenodd" clip-rule="evenodd" d="M23.354 21.8753C25.2669 20.4446 25.4514 21.058 29.5093 21.1558C33.9517 21.2626 34.0646 22.2199 34.0649 25.1394C34.0649 25.6467 33.993 25.98 33.8329 26.3268L57.4507 26.2549L55.1821 25.1119C53.9631 24.4153 54.3863 24.0802 52.6752 24.0802L38.6187 24.0824C37.8989 24.0836 36.1247 24.272 35.6757 23.8895C35.4772 23.7202 34.6722 22.3831 36.7969 22.3831L51.9081 22.3564C50.7929 20.6695 49.4839 19.1401 49.0673 16.5618L37.4477 16.6464C34.3416 16.6472 31.0146 16.5347 27.9369 16.6656C26.7803 16.7145 26.2944 17.574 25.1836 18.7426C24.7995 19.1465 24.4431 19.5118 24.0756 19.9992C23.4617 20.8124 23.406 20.5277 23.354 21.8753Z" fill="#050503"/>
<path fill-rule="evenodd" clip-rule="evenodd" d="M60.4264 5.94866C58.2066 6.39963 56.7083 7.5502 55.7325 8.88545C51.7398 14.346 56.0579 22.2744 63.0691 21.1411C66.8042 20.5371 70.0575 16.9251 69.2348 12.2379C68.6102 8.67632 64.9821 5.02376 60.4264 5.94866Z" fill="#050503"/>
<path fill-rule="evenodd" clip-rule="evenodd" d="M21.0743 88.2702L24.1114 88.2262C24.4545 87.7602 24.8979 86.0281 25.1518 85.3116L32.8286 85.3109L33.8033 88.18L37.0614 88.1664L34.4895 80.17C33.593 77.5367 32.8186 74.7801 31.8668 72.2382L25.9756 72.2258C25.1975 74.8681 24.2818 77.4844 23.4985 80.1813C23.1362 81.4289 21.0603 87.4337 21.0743 88.2702Z" fill="#CAFE50"/>
<path fill-rule="evenodd" clip-rule="evenodd" d="M29.0444 14.8546L48.7574 14.9136C48.7596 13.2312 48.6622 12.1634 49.0367 10.5502C49.3484 9.20704 50.1321 7.45354 50.1856 7.1248C48.187 7.31851 45.2964 7.16241 43.1743 7.16354C41.8495 7.16392 33.3488 7.0319 32.4331 7.29819C31.4861 7.57352 31.2787 8.64284 30.9769 9.51847L29.0444 14.8546Z" fill="#050503"/>
<path fill-rule="evenodd" clip-rule="evenodd" d="M85.8388 69.4557L88.6213 69.4602L88.6055 64.1166C89.6532 64.5578 89.1098 64.8797 91.5909 64.882C97.2168 64.8865 97.06 64.9207 97.0607 59.1077C97.0611 56.7046 97.5846 54.0793 95.475 53.2924C94.6745 52.9938 92.9464 53.1337 91.9812 53.1337C90.1576 53.1333 90.0982 52.9832 88.7276 53.6791C88.7132 53.6505 88.7006 53.5692 88.6944 53.588C88.6125 53.8419 88.7235 53.4669 88.4671 53.1333L85.7964 53.1337L85.8388 69.4557Z" fill="#CAFE50"/>
<path fill-rule="evenodd" clip-rule="evenodd" d="M66.1307 75.9307C64.2284 76.3527 64.1476 77.7428 64.1617 79.9398C64.2008 86.0861 63.1788 88.1615 67.9034 88.1672C69.3316 88.1687 72.6025 88.3331 73.8049 88.0818C75.7414 87.6763 75.7724 86.0849 75.7743 84.0531C75.7754 82.3346 75.9565 79.5667 75.6964 77.9689C75.3234 75.6779 73.253 75.8513 71.9384 75.8547C70.6247 75.8577 67.1578 75.7027 66.1307 75.9307Z" fill="#CAFE50"/>
<path fill-rule="evenodd" clip-rule="evenodd" d="M16.8881 61.2328L13.9883 61.2245C13.6917 62.7076 13.3087 62.4266 11.678 62.4206C10.4635 62.4161 9.24745 62.4168 8.03328 62.4213C5.45184 62.4311 5.8894 62.2675 5.88054 57.25C5.87021 51.4847 4.85453 52.5059 11.9385 52.4754C13.681 52.4679 13.9374 52.3284 13.8913 54.2101L16.8885 54.2116C16.8616 48.3828 16.2436 49.3705 8.68446 49.4096C2.29744 49.4427 2.95969 48.9579 2.95379 56.7193C2.94788 64.3185 2.21149 65.1291 7.64296 65.0471C15.6511 64.926 16.9258 65.9897 16.8881 61.2328Z" fill="#CAFE50"/>
<path fill-rule="evenodd" clip-rule="evenodd" d="M42.9181 61.5676C40.1064 61.5495 40.6126 61.3313 40.0039 61.9775C39.515 62.497 38.9336 62.2875 37.708 62.2878C34.2392 62.2893 34.7097 62.711 34.558 60.0348L42.9978 60.0367C43.0439 58.445 43.2114 56.0915 42.6783 54.8405C41.9279 53.0799 41.0284 53.1333 38.8794 53.1329C37.8209 53.1329 34.2385 52.9998 33.4744 53.2002C31.687 53.67 31.7139 55.7526 31.7076 56.9848C31.6873 60.9831 30.8786 64.8677 34.9742 64.8786C39.3501 64.8899 42.8986 65.8351 42.9181 61.5676Z" fill="#CAFE50"/>
<path fill-rule="evenodd" clip-rule="evenodd" d="M70.763 52.0752L70.7649 62.2923C70.7653 65.4021 74.0706 64.9072 76.8841 64.903L80.5284 64.9004C84.1639 64.8899 83.7437 62.7576 83.6994 59.3732L83.6625 49.2821L81.2936 49.2851L81.3209 60.3019C81.3224 62.5966 79.7854 62.0373 75.9732 62.0328C74.2912 62.0309 73.5415 62.1923 73.5378 60.4422L73.5467 49.2818L70.7627 49.2848L70.763 52.0752Z" fill="#CAFE50"/>
<path fill-rule="evenodd" clip-rule="evenodd" d="M18.5714 64.8624L21.0831 64.8831C21.054 62.8618 21.0702 60.848 21.0657 58.8425C21.0584 55.4796 20.7477 55.9279 24.042 55.926C27.2381 55.9245 27.0093 55.5397 27.0303 58.8425C27.0392 60.2473 26.8617 63.7355 27.0964 64.8831L29.7132 64.8884C29.9268 63.901 29.773 60.8518 29.773 59.6384C29.7719 52.6793 30.0571 53.1686 23.1299 53.1322C21.7929 53.1254 21.9025 53.1995 20.8669 53.6125L20.8591 49.4758L18.5581 49.4096L18.5714 64.8624Z" fill="#CAFE50"/>
<path fill-rule="evenodd" clip-rule="evenodd" d="M48.3803 87.3822L48.4455 88.1724L51.2262 88.1649L51.2513 75.9517L48.4046 75.9615C48.4954 78.0659 48.4489 80.2426 48.4533 82.3282C48.461 85.8525 48.4684 85.3797 45.1262 85.3778C41.0713 85.3759 41.8999 86.771 41.873 75.9577L39.1288 75.9453C39.1561 78.0103 38.8064 85.6253 39.3981 86.8383C40.1744 88.4297 41.5118 88.1694 43.5645 88.1709C44.4197 88.1717 45.4645 88.2228 46.2983 88.1604C47.3856 88.0792 47.7188 87.6086 48.3803 87.3822Z" fill="#CAFE50"/>
<path fill-rule="evenodd" clip-rule="evenodd" d="M57.616 64.8613L60.2542 64.8887C60.2347 64.0522 60.0513 62.0689 60.3601 61.4931C60.5368 61.164 61.844 59.9679 62.1683 59.7828C63.1257 61.5036 64.5033 63.2225 65.419 64.9459L68.8309 64.9226C68.6645 64.3569 66.9124 61.8327 66.49 61.2068C65.9543 60.4132 64.4195 58.3359 64.1089 57.4828C64.5361 57.1518 68.2476 53.5971 68.4332 53.0159C67.6735 53.1295 65.9185 52.9595 65.3286 53.1536C64.8836 53.2999 61.084 57.4117 60.2266 58.1061L60.2303 49.3363L57.6787 49.3513L57.616 64.8613Z" fill="#CAFE50"/>
<path fill-rule="evenodd" clip-rule="evenodd" d="M49.8119 64.8741L52.6752 64.8812C55.3246 64.8846 55.9255 64.1478 55.9336 61.1696L53.1958 61.1847C52.5114 62.4571 52.7575 62.1592 49.2913 62.1566C47.6378 62.1547 47.6241 61.973 47.6208 60.3019C47.6112 55.6387 46.8848 55.9291 50.9833 55.9426C52.4402 55.9471 52.5715 55.7523 53.1467 56.7802C53.1574 56.7994 53.177 56.8415 53.1961 56.8697L55.9399 56.8852C55.8606 52.31 53.7355 53.1243 47.8599 53.1329C44.0915 53.1386 44.7416 56.3165 44.7637 59.9039C44.7944 64.9087 45.5072 64.8556 49.8119 64.8741Z" fill="#CAFE50"/>
<path fill-rule="evenodd" clip-rule="evenodd" d="M54.4101 75.9596L52.5396 75.9472L52.5414 78.7531L54.4311 78.7494C54.4407 80.39 54.171 85.5497 54.6764 86.6574C55.6084 88.7005 58.4403 88.2195 61.2642 88.1634L61.2472 85.3985C58.603 85.2793 57.3438 85.8766 57.2431 84.1866C57.1398 82.4561 57.3962 80.522 57.2582 78.7761L61.2464 78.7445L61.2457 75.9739L57.3317 75.9416L57.3531 72.2364L54.396 72.2311L54.4101 75.9596Z" fill="#CAFE50"/>
<path fill-rule="evenodd" clip-rule="evenodd" d="M7.25074 61.0417L12.5505 60.9928L12.563 59.9265L17.0718 59.9284L17.0121 55.6996L12.5206 55.7026L12.5693 53.9329L7.2478 53.8957L7.25074 61.0417Z" fill="#CAFE50"/>
<path fill-rule="evenodd" clip-rule="evenodd" d="M66.9873 83.2572C66.9873 85.5403 67.0518 85.3838 69.0743 85.3767C73.447 85.3609 72.9725 86.1211 72.9751 81.3995C72.9766 78.301 73.2267 78.7494 67.9033 78.7486C66.6043 78.7486 66.9873 81.1385 66.9873 83.2572Z" fill="#050503"/>
<path fill-rule="evenodd" clip-rule="evenodd" d="M88.6208 57.6483C88.6186 62.5428 87.9294 62.0249 92.7625 62.0223C94.5931 62.0215 94.1729 61.5401 94.1947 57.643C94.2061 55.6432 93.4634 55.7985 89.8947 55.9351C88.7112 55.9806 88.6215 56.4616 88.6208 57.6483Z" fill="#050503"/>
<path fill-rule="evenodd" clip-rule="evenodd" d="M25.1844 22.7013C24.3974 22.9962 24.5236 23.8929 24.5605 24.8813C24.6011 25.9593 25.0586 26.2034 26.1178 26.2053C32.1366 26.2151 32.5679 26.8406 32.3749 23.9388C32.3045 22.8788 31.5939 22.8976 30.5487 22.8849C29.5017 22.8717 25.8433 22.4546 25.1844 22.7013Z" fill="#050503"/>
<path fill-rule="evenodd" clip-rule="evenodd" d="M26.074 82.2699L31.8633 82.3289L29.4829 75.0452L28.3503 75.0347L26.074 82.2699Z" fill="#050503"/>
<path fill-rule="evenodd" clip-rule="evenodd" d="M58.6623 84.09L62.897 84.1385L62.866 80.0425C61.871 80.0602 59.388 79.9037 58.5882 80.1282C58.5749 81.1445 58.4011 83.2539 58.6623 84.09Z" fill="#CAFE50"/>
<path fill-rule="evenodd" clip-rule="evenodd" d="M8.55834 59.6809L11.2036 59.6768L11.1896 58.4833L15.7113 58.4404L15.7109 57.1879L11.2272 57.1928L11.1992 55.2618L8.55615 55.2648L8.55834 59.6809Z" fill="#050503"/>
<path fill-rule="evenodd" clip-rule="evenodd" d="M49.0237 57.3237L48.9709 60.8364L51.8896 60.8352L51.894 59.907L56.2995 59.9054L56.3006 58.3622L51.8962 58.3772L51.8593 57.3346L49.0237 57.3237Z" fill="#CAFE50"/>
<path fill-rule="evenodd" clip-rule="evenodd" d="M65.8577 57.9398C66.3878 58.797 67.0338 59.7072 67.6053 60.6043C67.9713 61.179 69.0626 62.9427 69.4552 63.3376L69.4662 54.3256L65.8577 57.9398Z" fill="#CAFE50"/>
<path fill-rule="evenodd" clip-rule="evenodd" d="M68.2769 84.1208L71.6755 84.108L71.6788 80.0662L68.2783 80.0692L68.2769 84.1208Z" fill="#CAFE50"/>
<path fill-rule="evenodd" clip-rule="evenodd" d="M34.572 57.9172L40.1396 57.9033C40.0588 55.4871 40.5956 55.7312 36.797 55.7398C34.0448 55.7459 34.6181 55.8083 34.572 57.9172Z" fill="#050503"/>
<path fill-rule="evenodd" clip-rule="evenodd" d="M89.9606 60.8348L92.8755 60.8307L92.8988 57.3613L89.958 57.3692L89.9606 60.8348Z" fill="#CAFE50"/>
<path fill-rule="evenodd" clip-rule="evenodd" d="M27.8628 80.9779L30.0967 80.9805C30.141 80.4758 29.3334 77.6503 29.1179 77.328L27.8628 80.9779Z" fill="#CAFE50"/>
</svg>
